<svg id="Icons" height="512" viewBox="0 0 74 74" width="512" xmlns="http://www.w3.org/2000/svg">
    <path d="m41.4 33.6a1 1 0 0 1 -.707-1.707l17.6-17.6a1 1 0 0 1 1.414 1.414l-17.6 17.6a1 1 0 0 1 -.707.293z"/>
    <path d="m59 25.263a1 1 0 0 1 -1-1v-8.263h-8.263a1 1 0 1 1 0-2h9.263a1 1 0 0 1 1 1v9.263a1 1 0 0 1 -1 1z"/>
    <path d="m15 60a1 1 0 0 1 -.707-1.707l17.6-17.6a1 1 0 0 1 1.414 1.414l-17.6 17.6a1 1 0 0 1 -.707.293z"/>
    <path d="m24.263 60h-9.263a1 1 0 0 1 -1-1v-9.263a1 1 0 1 1 2 0v8.263h8.263a1 1 0 1 1 0 2z"/>
</svg>