<?xml version="1.0" ?><svg data-name="Layer 1" id="Layer_1" viewBox="0 0 32 32" xmlns="http://www.w3.org/2000/svg"><title/><path d="M6,4V30H25V4H6ZM24,29H7V5H24V29Z"/><path d="M15.5,27A6.5,6.5,0,1,0,9,20.5,6.51,6.51,0,0,0,15.5,27Zm0-12A5.5,5.5,0,1,1,10,20.5,5.51,5.51,0,0,1,15.5,15Z"/><path d="M15.5,12A2.5,2.5,0,1,0,13,9.5,2.5,2.5,0,0,0,15.5,12Zm0-4A1.5,1.5,0,1,1,14,9.5,1.5,1.5,0,0,1,15.5,8Z"/><path d="M15.5,23A2.5,2.5,0,1,0,13,20.5,2.5,2.5,0,0,0,15.5,23Zm0-4A1.5,1.5,0,1,1,14,20.5,1.5,1.5,0,0,1,15.5,19Z"/></svg>